<svg xmlns="http://www.w3.org/2000/svg" data-name="Layer 1" viewBox="0 0 100 100" x="0px" y="0px"><title>Artboard 4</title><path d="M9.71,10.34l7,.52,18.94,41.6a12.48,12.48,0,0,0,2.47,24.72H86a4.67,4.67,0,0,0,0-9.35H38.13a3.14,3.14,0,0,1-.36-6.26l53-8.16a4.67,4.67,0,0,0,4-4.62V20.43A4.67,4.67,0,0,0,90,15.76H29.18L24,4.4a4.67,4.67,0,0,0-4-2.73L10.21,1a4.67,4.67,0,0,0-.5,9.33ZM85.36,44.78l-9.16,1.41L75,38.26l10.33-.91Zm0-19.68v6l-11.24,1-1-7ZM70,47.14l-9.74,1.5L57.7,39.79l11.12-1Zm-3.25-22,1.11,7.53-12,1.06-2.53-8.59ZM54.1,49.6,45.1,51a4.65,4.65,0,0,0-.32-1l-3.95-8.66,10.54-.93ZM46.87,25.11l2.7,9.15-11.49,1L33.45,25.11ZM73.51,99a7.16,7.16,0,1,1,7.17-7.17A7.17,7.17,0,0,1,73.51,99Zm-34.4-7.17A7.16,7.16,0,1,1,46.27,99,7.17,7.17,0,0,1,39.11,91.83Z"></path></svg>