<svg xmlns:dc="http://purl.org/dc/elements/1.1/" xmlns:cc="http://creativecommons.org/ns#" xmlns:rdf="http://www.w3.org/1999/02/22-rdf-syntax-ns#" xmlns:svg="http://www.w3.org/2000/svg" xmlns="http://www.w3.org/2000/svg" xmlns:sodipodi="http://sodipodi.sourceforge.net/DTD/sodipodi-0.dtd" xmlns:inkscape="http://www.inkscape.org/namespaces/inkscape" version="1.1" x="0px" y="0px" viewBox="0 0 100 100"><g transform="translate(0,-952.36218)"><path style="color:#000000;enable-background:accumulate;" d="m 25,981.36218 c 7.97356,0 14.91261,4.4538 18.46875,11.00001 l 42.53125,0 10,9.00001 -13,11 -6,-6 -6,6 -6,-6 -6,6 -15.53125,0 c -3.55614,6.5462 -10.49519,11 -18.46875,11 -11.59793,0 -20.9999998,-9.4021 -20.9999998,-21 0,-11.59791 9.4020698,-21.00002 20.9999998,-21.00002 z m -8,16.00001 c -2.76141,0 -5,2.2386 -5,5.00001 0,2.7614 2.23859,5 5,5 2.76141,0 5,-2.2386 5,-5 0,-2.76141 -2.23859,-5.00001 -5,-5.00001 z" fill="#000000" stroke="none" marker="none" visibility="visible" display="inline" overflow="visible"></path></g></svg>